<?xml version="1.0" standalone="no"?>
<!DOCTYPE svg PUBLIC "-//W3C//DTD SVG 20010904//EN"
 "http://www.w3.org/TR/2001/REC-SVG-20010904/DTD/svg10.dtd">
<svg version="1.0" xmlns="http://www.w3.org/2000/svg"
 width="504.000000pt" height="504.000000pt" viewBox="0 0 504.000000 504.000000"
 preserveAspectRatio="xMidYMid meet">
<metadata>
Created by potrace 1.14, written by Peter Selinger 2001-2017
</metadata>
<g transform="translate(0.000000,504.000000) scale(0.100000,-0.100000)"
fill="#000000" stroke="none">
<path d="M1879 5036 c-2 -2 -29 -7 -59 -9 -30 -3 -66 -8 -80 -11 -14 -3 -36
-8 -50 -10 -14 -2 -52 -11 -85 -21 -271 -76 -488 -200 -684 -389 -191 -185
-331 -409 -410 -658 -30 -94 -34 -110 -47 -193 -3 -22 -7 -42 -9 -45 -6 -10
-18 -175 -18 -257 0 -45 -4 -80 -9 -77 -13 8 -92 -31 -122 -61 -52 -52 -66
-98 -66 -225 0 -147 10 -181 70 -241 49 -49 49 -49 33 -80 -50 -100 -55 -276
-10 -391 l26 -67 -27 -17 c-35 -22 -49 -40 -72 -89 -17 -34 -19 -60 -17 -175
2 -105 6 -142 19 -165 17 -31 50 -67 80 -88 17 -11 16 -16 -9 -77 -24 -58 -27
-78 -27 -180 0 -102 3 -123 27 -185 21 -53 25 -71 15 -74 -19 -6 -67 -60 -85
-95 -22 -42 -26 -257 -5 -318 22 -68 100 -136 161 -141 17 -1 18 -14 18 -157
0 -94 5 -178 13 -210 36 -152 167 -281 320 -317 44 -10 397 -13 1760 -13 1622
0 1708 1 1765 18 145 44 254 156 296 302 7 25 14 111 15 195 1 83 3 158 3 168
1 11 9 17 24 17 44 0 114 57 143 115 25 52 26 60 22 187 -5 151 -14 175 -80
233 l-41 35 17 37 c57 129 54 310 -8 422 -13 23 -11 26 17 45 75 51 94 109 92
269 -2 102 -5 129 -23 163 -20 40 -74 94 -92 94 -5 0 2 21 15 48 31 62 43 134
39 234 -3 78 -9 103 -41 176 -15 33 -14 34 25 70 68 64 76 89 76 242 0 109 -3
142 -18 172 -30 62 -79 102 -151 122 -18 5 -20 15 -21 108 0 92 -9 209 -19
256 -40 190 -68 277 -132 412 -148 311 -400 570 -708 727 -144 73 -258 111
-485 159 -37 8 -1373 17 -1381 10z"/>
</g>
</svg>
